{"asset":{"generator":"3D Builder","version":"2.0"},"scene":0,"scenes":[{"nodes":[0]}],"nodes":[{"mesh":0,"matrix":[1,0,0,0,0,-1.1920928955078125E-7,-0.99999988079071045,0,0,0.99999988079071045,-1.1920928955078125E-7,0,6.6644429352891166E-6,8.4251742009655572E-6,-8.42517601995496E-6,1]}],"meshes":[{"primitives":[{"attributes":{"POSITION":0,"COLOR_0":1},"mode":4,"indices":2}]}],"accessors":[{"bufferView":0,"byteOffset":0,"count":4536,"componentType":5126,"type":"VEC3","min":[-0.016664711758494377,-0.015000000596046448,0],"max":[0.01665138266980648,0.01498315017670393,0.029983149841427803]},{"bufferView":1,"byteOffset":0,"count":4536,"componentType":5121,"type":"VEC4","normalized":true},{"bufferView":2,"byteOffset":0,"count":18774,"componentType":5125,"type":"SCALAR"}],"bufferViews":[{"buffer":0,"byteOffset":0,"byteLength":54432,"byteStride":12,"target":34962},{"buffer":0,"byteOffset":54432,"byteLength":18144,"byteStride":4,"target":34962},{"buffer":0,"byteOffset":72576,"byteLength":75096,"target":34963}],"buffers":[{"byteLength":147672,"uri":"Part1.bin"}]}