{"asset":{"generator":"3D Builder","version":"2.0"},"scene":0,"scenes":[{"nodes":[0]}],"nodes":[{"mesh":0,"matrix":[1,0,0,0,0,-1.1920928955078125E-7,-0.99999988079071045,0,0,0.99999988079071045,-1.1920928955078125E-7,0,0,0,0,1]}],"meshes":[{"primitives":[{"attributes":{"POSITION":0,"COLOR_0":2},"mode":4,"indices":3},{"attributes":{"POSITION":1},"mode":4,"indices":4,"material":0}]}],"materials":[{"name":"Default","pbrMetallicRoughness":{"baseColorFactor":[0.50288659334182739,0.50288659334182739,0.50288659334182739,1],"metallicFactor":0,"roughnessFactor":1},"alphaMode":"OPAQUE"}],"accessors":[{"bufferView":0,"byteOffset":0,"count":3693,"componentType":5126,"type":"VEC3","min":[-0.031098401173949242,-0.096539124846458435,0],"max":[0.068901598453521729,0.0056044962257146835,0.099999971687793732]},{"bufferView":0,"byteOffset":44316,"count":33,"componentType":5126,"type":"VEC3","min":[-0.0250984039157629,-0.089872471988201141,0.0059999986551702023],"max":[0.062234934419393539,-0.0032058241777122021,0.093999996781349182]},{"bufferView":1,"byteOffset":0,"count":3693,"componentType":5121,"type":"VEC4","normalized":true},{"bufferView":2,"byteOffset":0,"count":17214,"componentType":5125,"type":"SCALAR"},{"bufferView":2,"byteOffset":68856,"count":186,"componentType":5125,"type":"SCALAR"}],"bufferViews":[{"buffer":0,"byteOffset":0,"byteLength":44712,"byteStride":12,"target":34962},{"buffer":0,"byteOffset":44712,"byteLength":14772,"byteStride":4,"target":34962},{"buffer":0,"byteOffset":59484,"byteLength":69600,"target":34963}],"buffers":[{"byteLength":129084,"uri":"testi.bin"}]}